# xmcd
#
# Track frame offsets:
#	150
#	16404
#	41418
#	54906
#	88410
#	115706
#	130897
#	150756
#
# Disc length: 2225 seconds
#
# Revision: 0
# Processed by: cddbd v1.5.2PL0 Copyright (c) Steve Scherf et al.
# Submitted via: EasyCDDAExtractor 12.0.1.1
#
DISCID=5608af08
DTITLE=Bob Weir - Ace
DYEAR=1972
DGENRE=Classic Rock
TTITLE0=Greatest Story Ever Told
TTITLE1=Black-Throated Wind
TTITLE2=Walk In The Sunshine
TTITLE3=Playing In The Band
TTITLE4=Looks Like Rain
TTITLE5=Mexicali Blues
TTITLE6=One More Saturday Night
TTITLE7=Cassidy
EXTD=
EXTT0=
EXTT1=
EXTT2=
EXTT3=
EXTT4=
EXTT5=
EXTT6=
EXTT7=
PLAYORDER=
